# Blender v2.64 (sub 0) OBJ File: 'tracker.blend'
# www.blender.org
g Tracker
v 0.187500 0.125000 0.000000
v 0.187500 -0.125000 0.000000
v -0.187500 -0.125000 0.000000
v -0.187500 0.125000 0.000000
v 0.187500 0.125000 0.062500
v 0.187500 -0.125000 0.062500
v -0.187500 -0.125000 0.062500
v -0.187500 0.125000 0.062500
v -0.125000 0.187500 0.000000
v 0.125000 0.187500 0.000000
v 0.125000 -0.187500 0.000000
v -0.125000 -0.187500 0.000000
v -0.125000 0.187500 0.062500
v 0.125000 0.187500 0.062500
v 0.125000 -0.187500 0.062500
v -0.125000 -0.187500 0.062500
v -0.062500 0.062500 0.062500
v 0.062500 0.062500 0.062500
v 0.062500 -0.062500 0.062500
v -0.062500 -0.062500 0.062500
v -0.062500 0.062500 0.187500
v 0.062500 0.062500 0.187500
v 0.062500 -0.062500 0.187500
v -0.062500 -0.062500 0.187500
v 0.000000 0.000000 0.142500
vt 0.375000 0.750000
vt 0.625000 0.750000
vt 0.625000 0.812500
vt 0.375000 0.812500
vt 0.687500 0.812500
vt 0.312500 0.812500
vt 0.312500 0.750000
vt 0.687500 0.750000
vt 0.625000 0.687500
vt 0.375000 0.687500
vt 0.375000 0.312500
vt 0.625000 0.312500
vt 0.687500 0.375000
vt 0.687500 0.625000
vt 0.312500 0.625000
vt 0.312500 0.375000
vt 0.750000 0.500000
vt 0.875000 0.500000
vt 0.875000 0.625000
vt 0.750000 0.625000
vt 0.125000 0.937500
vt 0.187500 0.812500
vt 0.250000 0.937500
vn 1.000000 0.000000 0.000000
vn 0.000000 -1.000000 0.000000
vn -1.000000 0.000000 0.000000
vn 0.000000 1.000000 0.000000
vn 0.000000 0.000000 -1.000000
vn 0.000000 0.000000 1.000000
vn 0.000000 0.584305 0.811534
vn 0.584305 -0.000000 0.811534
vn 0.000000 -0.584305 0.811534
vn -0.584305 0.000000 0.811534
s off
f 2/1/1 1/2/1 5/3/1 6/4/1
f 6/5/2 7/6/2 3/7/2 2/8/2
f 7/3/3 8/4/3 4/1/3 3/2/3
f 1/7/4 4/8/4 8/5/4 5/6/4
f 1/9/5 2/10/5 3/11/5 4/12/5
f 8/9/6 7/10/6 6/11/6 5/12/6
f 13/3/4 14/4/4 10/1/4 9/2/4
f 14/5/1 15/6/1 11/7/1 10/8/1
f 15/3/2 16/4/2 12/1/2 11/2/2
f 16/5/3 13/6/3 9/7/3 12/8/3
f 9/13/5 10/14/5 11/15/5 12/16/5
f 16/15/6 15/16/6 14/13/6 13/14/6
f 21/17/4 22/18/4 18/19/4 17/20/4
f 22/19/1 23/20/1 19/17/1 18/18/1
f 23/20/2 24/17/2 20/18/2 19/19/2
f 24/20/3 21/17/3 17/18/3 20/19/3
f 23/21/7 25/22/7 24/23/7
f 24/21/8 25/22/8 21/23/8
f 22/23/9 21/21/9 25/22/9
f 23/23/10 22/21/10 25/22/10
